<mxfile host="65bd71144e">
    <diagram id="C5RBs43oDa-KdzZeNtuy" name="Page-1">
        <mxGraphModel dx="948" dy="779" grid="1" gridSize="10" guides="1" tooltips="1" connect="1" arrows="1" fold="1" page="1" pageScale="1" pageWidth="827" pageHeight="1169" background="#ffffff" math="0" shadow="0">
            <root>
                <mxCell id="WIyWlLk6GJQsqaUBKTNV-0"/>
                <mxCell id="WIyWlLk6GJQsqaUBKTNV-1" parent="WIyWlLk6GJQsqaUBKTNV-0"/>
                <mxCell id="0" value="User" style="swimlane;fontStyle=0;childLayout=stackLayout;horizontal=1;startSize=30;horizontalStack=0;resizeParent=1;resizeParentMax=0;resizeLast=0;collapsible=1;marginBottom=0;whiteSpace=wrap;html=1;strokeColor=#000000;fontColor=#ffffff;fillColor=#a20025;strokeWidth=2;" parent="WIyWlLk6GJQsqaUBKTNV-1" vertex="1">
                    <mxGeometry x="100" y="35" width="160" height="180" as="geometry"/>
                </mxCell>
                <mxCell id="46" value="idUser: INT PK" style="text;strokeColor=none;fillColor=none;align=left;verticalAlign=middle;spacingLeft=4;spacingRight=4;overflow=hidden;points=[[0,0.5],[1,0.5]];portConstraint=eastwest;rotatable=0;whiteSpace=wrap;html=1;fontColor=#080808;" parent="0" vertex="1">
                    <mxGeometry y="30" width="160" height="30" as="geometry"/>
                </mxCell>
                <mxCell id="82" value="emailUser: VARCHAR(100)" style="text;strokeColor=none;fillColor=none;align=left;verticalAlign=middle;spacingLeft=4;spacingRight=4;overflow=hidden;points=[[0,0.5],[1,0.5]];portConstraint=eastwest;rotatable=0;whiteSpace=wrap;html=1;fontColor=#080808;" parent="0" vertex="1">
                    <mxGeometry y="60" width="160" height="30" as="geometry"/>
                </mxCell>
                <mxCell id="2" value="passUser: VARCHAR(15)" style="text;strokeColor=none;fillColor=none;align=left;verticalAlign=middle;spacingLeft=4;spacingRight=4;overflow=hidden;points=[[0,0.5],[1,0.5]];portConstraint=eastwest;rotatable=0;whiteSpace=wrap;html=1;fontColor=#080808;" parent="0" vertex="1">
                    <mxGeometry y="90" width="160" height="30" as="geometry"/>
                </mxCell>
                <mxCell id="3" value="nickUser: VARCHAR(15)" style="text;strokeColor=none;fillColor=none;align=left;verticalAlign=middle;spacingLeft=4;spacingRight=4;overflow=hidden;points=[[0,0.5],[1,0.5]];portConstraint=eastwest;rotatable=0;whiteSpace=wrap;html=1;fontColor=#080808;" parent="0" vertex="1">
                    <mxGeometry y="120" width="160" height="30" as="geometry"/>
                </mxCell>
                <mxCell id="6" value="adminUser: BOOLEAN" style="text;strokeColor=none;fillColor=none;align=left;verticalAlign=middle;spacingLeft=4;spacingRight=4;overflow=hidden;points=[[0,0.5],[1,0.5]];portConstraint=eastwest;rotatable=0;whiteSpace=wrap;html=1;fontColor=#080808;" parent="0" vertex="1">
                    <mxGeometry y="150" width="160" height="30" as="geometry"/>
                </mxCell>
                <mxCell id="7" value="Member" style="swimlane;fontStyle=0;childLayout=stackLayout;horizontal=1;startSize=30;horizontalStack=0;resizeParent=1;resizeParentMax=0;resizeLast=0;collapsible=1;marginBottom=0;whiteSpace=wrap;html=1;strokeColor=#000000;fontColor=#ffffff;fillColor=#a20025;strokeWidth=2;" parent="WIyWlLk6GJQsqaUBKTNV-1" vertex="1">
                    <mxGeometry x="40" y="480" width="120" height="60" as="geometry"/>
                </mxCell>
                <mxCell id="17" style="edgeStyle=none;html=1;fontColor=#000000;" parent="WIyWlLk6GJQsqaUBKTNV-1" source="14" target="15" edge="1">
                    <mxGeometry relative="1" as="geometry"/>
                </mxCell>
                <mxCell id="14" value="" style="triangle;whiteSpace=wrap;html=1;strokeColor=#6F0000;strokeWidth=2;fontColor=#ffffff;fillColor=#a20025;rotation=90;" parent="WIyWlLk6GJQsqaUBKTNV-1" vertex="1">
                    <mxGeometry x="150" y="360" width="60" height="80" as="geometry"/>
                </mxCell>
                <mxCell id="15" value="" style="ellipse;whiteSpace=wrap;html=1;aspect=fixed;strokeColor=#6F0000;strokeWidth=2;fontColor=#ffffff;fillColor=#a20025;" parent="WIyWlLk6GJQsqaUBKTNV-1" vertex="1">
                    <mxGeometry x="170" y="350" width="20" height="20" as="geometry"/>
                </mxCell>
                <mxCell id="16" value="" style="endArrow=none;html=1;fontColor=#000000;exitX=0.5;exitY=0;exitDx=0;exitDy=0;strokeColor=#030303;strokeWidth=2;" parent="WIyWlLk6GJQsqaUBKTNV-1" source="15" target="0" edge="1">
                    <mxGeometry width="50" height="50" relative="1" as="geometry">
                        <mxPoint x="350" y="410" as="sourcePoint"/>
                        <mxPoint x="400" y="360" as="targetPoint"/>
                    </mxGeometry>
                </mxCell>
                <mxCell id="18" value="Admin" style="swimlane;fontStyle=0;childLayout=stackLayout;horizontal=1;startSize=30;horizontalStack=0;resizeParent=1;resizeParentMax=0;resizeLast=0;collapsible=1;marginBottom=0;whiteSpace=wrap;html=1;strokeColor=#000000;fontColor=#ffffff;fillColor=#a20025;strokeWidth=2;" parent="WIyWlLk6GJQsqaUBKTNV-1" vertex="1">
                    <mxGeometry x="200" y="480" width="120" height="60" as="geometry"/>
                </mxCell>
                <mxCell id="24" value="" style="endArrow=none;html=1;fontColor=#000000;strokeColor=#030303;strokeWidth=2;" parent="WIyWlLk6GJQsqaUBKTNV-1" source="7" target="14" edge="1">
                    <mxGeometry width="50" height="50" relative="1" as="geometry">
                        <mxPoint x="190" y="360" as="sourcePoint"/>
                        <mxPoint x="190" y="320" as="targetPoint"/>
                    </mxGeometry>
                </mxCell>
                <mxCell id="25" value="" style="endArrow=none;html=1;fontColor=#000000;strokeColor=#030303;strokeWidth=2;" parent="WIyWlLk6GJQsqaUBKTNV-1" source="18" target="14" edge="1">
                    <mxGeometry width="50" height="50" relative="1" as="geometry">
                        <mxPoint x="124.54545454545462" y="490" as="sourcePoint"/>
                        <mxPoint x="178.9795918367347" y="423.46938775510193" as="targetPoint"/>
                    </mxGeometry>
                </mxCell>
                <mxCell id="42" value="List" style="swimlane;fontStyle=0;childLayout=stackLayout;horizontal=1;startSize=30;horizontalStack=0;resizeParent=1;resizeParentMax=0;resizeLast=0;collapsible=1;marginBottom=0;whiteSpace=wrap;html=1;strokeColor=#000000;fontColor=#ffffff;fillColor=#a20025;strokeWidth=2;" parent="WIyWlLk6GJQsqaUBKTNV-1" vertex="1">
                    <mxGeometry x="600" y="340" width="190" height="120" as="geometry"/>
                </mxCell>
                <mxCell id="43" value="idList: INT PK" style="text;strokeColor=none;fillColor=none;align=left;verticalAlign=middle;spacingLeft=4;spacingRight=4;overflow=hidden;points=[[0,0.5],[1,0.5]];portConstraint=eastwest;rotatable=0;whiteSpace=wrap;html=1;fontColor=#080808;" parent="42" vertex="1">
                    <mxGeometry y="30" width="190" height="30" as="geometry"/>
                </mxCell>
                <mxCell id="49" value="titleList: VARCHAR(100)" style="text;strokeColor=none;fillColor=none;align=left;verticalAlign=middle;spacingLeft=4;spacingRight=4;overflow=hidden;points=[[0,0.5],[1,0.5]];portConstraint=eastwest;rotatable=0;whiteSpace=wrap;html=1;fontColor=#080808;" parent="42" vertex="1">
                    <mxGeometry y="60" width="190" height="30" as="geometry"/>
                </mxCell>
                <mxCell id="85" value="idUser: INT" style="text;strokeColor=none;fillColor=none;align=left;verticalAlign=middle;spacingLeft=4;spacingRight=4;overflow=hidden;points=[[0,0.5],[1,0.5]];portConstraint=eastwest;rotatable=0;whiteSpace=wrap;html=1;fontColor=#080808;" parent="42" vertex="1">
                    <mxGeometry y="90" width="190" height="30" as="geometry"/>
                </mxCell>
                <mxCell id="50" value="contains_a" style="html=1;whiteSpace=wrap;aspect=fixed;shape=isoRectangle;strokeColor=#6F0000;strokeWidth=2;fontColor=#ffffff;fillColor=#a20025;" parent="WIyWlLk6GJQsqaUBKTNV-1" vertex="1">
                    <mxGeometry x="655" y="101" width="80" height="48" as="geometry"/>
                </mxCell>
                <mxCell id="51" value="" style="endArrow=none;html=1;fontColor=#000000;strokeColor=#030303;strokeWidth=2;" parent="WIyWlLk6GJQsqaUBKTNV-1" source="50" target="42" edge="1">
                    <mxGeometry width="50" height="50" relative="1" as="geometry">
                        <mxPoint x="705" y="490" as="sourcePoint"/>
                        <mxPoint x="695" y="380" as="targetPoint"/>
                    </mxGeometry>
                </mxCell>
                <mxCell id="52" value="Song" style="swimlane;fontStyle=0;childLayout=stackLayout;horizontal=1;startSize=30;horizontalStack=0;resizeParent=1;resizeParentMax=0;resizeLast=0;collapsible=1;marginBottom=0;whiteSpace=wrap;html=1;strokeColor=#000000;fontColor=#ffffff;fillColor=#a20025;strokeWidth=2;" parent="WIyWlLk6GJQsqaUBKTNV-1" vertex="1">
                    <mxGeometry x="440" y="20" width="190" height="210" as="geometry"/>
                </mxCell>
                <mxCell id="53" value="idSong: INT PK" style="text;strokeColor=none;fillColor=none;align=left;verticalAlign=middle;spacingLeft=4;spacingRight=4;overflow=hidden;points=[[0,0.5],[1,0.5]];portConstraint=eastwest;rotatable=0;whiteSpace=wrap;html=1;fontColor=#080808;" parent="52" vertex="1">
                    <mxGeometry y="30" width="190" height="30" as="geometry"/>
                </mxCell>
                <mxCell id="84" value="titleSong: VARCHAR(100)" style="text;strokeColor=none;fillColor=none;align=left;verticalAlign=middle;spacingLeft=4;spacingRight=4;overflow=hidden;points=[[0,0.5],[1,0.5]];portConstraint=eastwest;rotatable=0;whiteSpace=wrap;html=1;fontColor=#080808;" parent="52" vertex="1">
                    <mxGeometry y="60" width="190" height="30" as="geometry"/>
                </mxCell>
                <mxCell id="81" value="autorSong: VARCHAR(100)" style="text;strokeColor=none;fillColor=none;align=left;verticalAlign=middle;spacingLeft=4;spacingRight=4;overflow=hidden;points=[[0,0.5],[1,0.5]];portConstraint=eastwest;rotatable=0;whiteSpace=wrap;html=1;fontColor=#080808;" parent="52" vertex="1">
                    <mxGeometry y="90" width="190" height="30" as="geometry"/>
                </mxCell>
                <mxCell id="73" value="durationSong: INT" style="text;strokeColor=none;fillColor=none;align=left;verticalAlign=middle;spacingLeft=4;spacingRight=4;overflow=hidden;points=[[0,0.5],[1,0.5]];portConstraint=eastwest;rotatable=0;whiteSpace=wrap;html=1;fontColor=#080808;" parent="52" vertex="1">
                    <mxGeometry y="120" width="190" height="30" as="geometry"/>
                </mxCell>
                <mxCell id="55" value="idUser: INT FK" style="text;strokeColor=none;fillColor=none;align=left;verticalAlign=middle;spacingLeft=4;spacingRight=4;overflow=hidden;points=[[0,0.5],[1,0.5]];portConstraint=eastwest;rotatable=0;whiteSpace=wrap;html=1;fontColor=#080808;" parent="52" vertex="1">
                    <mxGeometry y="150" width="190" height="30" as="geometry"/>
                </mxCell>
                <mxCell id="78" value="idList: INT FK" style="text;strokeColor=none;fillColor=none;align=left;verticalAlign=middle;spacingLeft=4;spacingRight=4;overflow=hidden;points=[[0,0.5],[1,0.5]];portConstraint=eastwest;rotatable=0;whiteSpace=wrap;html=1;fontColor=#080808;" parent="52" vertex="1">
                    <mxGeometry y="180" width="190" height="30" as="geometry"/>
                </mxCell>
                <mxCell id="56" value="" style="endArrow=none;html=1;fontColor=#000000;strokeColor=#030303;strokeWidth=2;" parent="WIyWlLk6GJQsqaUBKTNV-1" source="52" target="50" edge="1">
                    <mxGeometry width="50" height="50" relative="1" as="geometry">
                        <mxPoint x="625" y="244" as="sourcePoint"/>
                        <mxPoint x="705" y="370" as="targetPoint"/>
                    </mxGeometry>
                </mxCell>
                <mxCell id="66" value="create_r" style="html=1;whiteSpace=wrap;aspect=fixed;shape=isoRectangle;strokeColor=#6F0000;strokeWidth=2;fontColor=#ffffff;fillColor=#a20025;" parent="WIyWlLk6GJQsqaUBKTNV-1" vertex="1">
                    <mxGeometry x="310" y="101" width="80" height="48" as="geometry"/>
                </mxCell>
                <mxCell id="67" value="" style="endArrow=none;html=1;fontColor=#000000;strokeColor=#030303;strokeWidth=2;" parent="WIyWlLk6GJQsqaUBKTNV-1" source="0" target="66" edge="1">
                    <mxGeometry width="50" height="50" relative="1" as="geometry">
                        <mxPoint x="270" y="243.58" as="sourcePoint"/>
                        <mxPoint x="305" y="243.58" as="targetPoint"/>
                    </mxGeometry>
                </mxCell>
                <mxCell id="69" value="" style="endArrow=none;html=1;fontColor=#000000;strokeColor=#030303;strokeWidth=2;" parent="WIyWlLk6GJQsqaUBKTNV-1" source="66" target="52" edge="1">
                    <mxGeometry width="50" height="50" relative="1" as="geometry">
                        <mxPoint x="270.0000000000001" y="244.4999999999999" as="sourcePoint"/>
                        <mxPoint x="309.9999999999999" y="249.2499999999999" as="targetPoint"/>
                    </mxGeometry>
                </mxCell>
                <mxCell id="75" value="create_t" style="html=1;whiteSpace=wrap;aspect=fixed;shape=isoRectangle;strokeColor=#6F0000;strokeWidth=2;fontColor=#ffffff;fillColor=#a20025;" parent="WIyWlLk6GJQsqaUBKTNV-1" vertex="1">
                    <mxGeometry x="400" y="376" width="80" height="48" as="geometry"/>
                </mxCell>
                <mxCell id="76" value="" style="endArrow=none;html=1;fontColor=#000000;strokeColor=#030303;strokeWidth=2;" parent="WIyWlLk6GJQsqaUBKTNV-1" source="75" target="42" edge="1">
                    <mxGeometry width="50" height="50" relative="1" as="geometry">
                        <mxPoint x="400" y="165" as="sourcePoint"/>
                        <mxPoint x="450" y="165" as="targetPoint"/>
                    </mxGeometry>
                </mxCell>
                <mxCell id="83" value="" style="endArrow=none;html=1;fontColor=#000000;strokeColor=#030303;strokeWidth=2;exitX=1;exitY=0.5;exitDx=0;exitDy=0;" parent="WIyWlLk6GJQsqaUBKTNV-1" target="75" edge="1">
                    <mxGeometry width="50" height="50" relative="1" as="geometry">
                        <mxPoint x="260" y="200" as="sourcePoint"/>
                        <mxPoint x="400" y="240" as="targetPoint"/>
                        <Array as="points">
                            <mxPoint x="350" y="200"/>
                            <mxPoint x="350" y="400"/>
                        </Array>
                    </mxGeometry>
                </mxCell>
            </root>
        </mxGraphModel>
    </diagram>
</mxfile>